<svg width="902" height="962" viewBox="0 0 902 962" fill="none" xmlns="http://www.w3.org/2000/svg">
<path d="M8.5 189.5H9.20949H11.2531H13.2933H15.33H17.3633H19.3932H21.4196H23.4427H25.4624H27.4787H29.4916H31.5012H33.5075H35.5105H37.5102H39.5065H41.4997H43.4895H45.4761H47.4595H49.4397H51.4166H53.3904H55.361H57.3284H59.2927H61.2539H63.2119H65.1668H67.1186H69.0674H71.0131H72.9557H74.8953H76.8319H78.7655H80.696H82.6236H84.5483H86.4699H88.3886H90.3045H92.2173H94.1273H96.0344H97.9387H99.84H101.739H103.634H105.527H107.417H109.305H111.189H113.071H114.95H116.826H118.7H120.57H122.439H124.304H126.167H128.027H129.885H131.739H133.592H135.441H137.289H139.133H140.975H142.815H144.652H146.486H148.318H150.147H151.974H153.799H155.621H157.44H159.258H161.072H162.885H164.695H166.503H168.308H170.111H171.912H173.71H175.506H177.3H179.091H180.881H182.668H184.453H186.235H188.016H189.794H191.57H193.344H195.116H196.885H198.653H200.418H202.182H203.943H205.702H207.46H209.215H210.968H212.719H214.468H216.215H217.961H219.704H221.445H223.185H224.922H226.658H228.392H230.123H231.854H233.582H235.308H237.033H238.755H240.476H242.196H243.913H245.629H247.343H249.055H250.766H252.475H254.182H255.888H257.592H259.294H260.995H262.694H264.391H266.087H267.781H269.474H271.166H272.855H274.544H276.23H277.916H279.6H281.282H282.963H284.643H286.321H287.997H289.673H291.347H293.019H294.691H296.361H298.029H299.697H301.363H303.028H304.691H306.353H308.015H309.674H311.333H312.991H314.647H316.302H317.956H319.609H321.261H322.911H324.561H326.209H327.857H329.503H331.148H332.793H334.436H336.078H337.72H339.36H340.999H342.638H344.275H345.912H347.548H349.183H350.817H352.45H354.082H355.713H357.344H358.974H360.603H362.231H363.859H365.486H367.112H368.737H370.362H371.986H373.609H375.231H376.853H378.475H380.095H381.715H383.335H384.954H386.572H388.19H389.807H391.424H393.04H394.656H396.271H397.886H399.5H401.114H402.727H404.34H405.953H407.565H409.177H410.789H412.4H414.011H415.621H417.231H418.841H420.451H422.06H423.669H425.278H426.887H428.495H430.104H431.712H433.32H434.928H436.535H438.143H439.75H441.357H442.965H444.572H446.179H447.786H449.393H451H452.607H454.214H455.821H457.428H459.035H460.643H462.25H463.857H465.465H467.072H468.68H470.288H471.896H473.505H475.113H476.722H478.331H479.94H481.549H483.159H484.769H486.379H487.989H489.6H491.211H492.823H494.435H496.047H497.66H499.273H500.886H502.5H504.114H505.729H507.344H508.96H510.576H512.193H513.81H515.428H517.046H518.665H520.285H521.905H523.525H525.147H526.769H528.391H530.014H531.638H533.263H534.888H536.514H538.141H539.769H541.397H543.026H544.656H546.286H547.918H549.55H551.183H552.817H554.452H556.088H557.725H559.362H561.001H562.64H564.28H565.922H567.564H569.207H570.852H572.497H574.143H575.791H577.439H579.089H580.739H582.391H584.044H585.698H587.353H589.009H590.667H592.326H593.985H595.647H597.309H598.972H600.637H602.303H603.971H605.639H607.309H608.981H610.653H612.327H614.003H615.679H617.357H619.037H620.718H622.4H624.084H625.77H627.456H629.145H630.834H632.526H634.219H635.913H637.609H639.306H641.005H642.706H644.408H646.112H647.818H649.525H651.234H652.945H654.657H656.371H658.087H659.804H661.524H663.245H664.967H666.692H668.418H670.146H671.877H673.608H675.342H677.078H678.815H680.555H682.296H684.039H685.785H687.532H689.281H691.032H692.785H694.54H696.298H698.057H699.818H701.582H703.347H705.115H706.884H708.656H710.43H712.206H713.984H715.765H717.547H719.332H721.119H722.909H724.7H726.494H728.29H730.088H731.889H733.692H735.497H737.305H739.115H740.928H742.742H744.56H746.379H748.201H750.026H751.853H753.682H755.514H757.349H759.185H761.025H762.867H764.711H766.559H768.408H770.26H772.115H773.973H775.833H777.696H779.561H781.43H783.3H785.174H787.05H788.929H790.811H792.695H794.583H796.473H798.366H800.261H802.16H804.061H805.966H807.873H809.783H811.696H813.611H815.53H817.452H819.376H821.304H823.234H825.168H827.105H829.044H830.987H832.933H834.881H836.833H838.788H840.746H842.707H844.672H846.639H848.61H850.583H852.56H854.541H856.524H858.51H860.5H862.493H864.49H866.49H868.492H870.499H872.508H874.521H876.538H878.557H880.58H882.607H884.637H886.67H888.707H890.747H892.791H893.5V249.5H8.5V189.5Z" fill="white" stroke="#272727" stroke-width="15"/>
<path d="M37.3814 184.5L451 8.15321L864.619 184.5H37.3814Z" fill="white" stroke="#272727" stroke-width="15"/>
<rect x="8.5" y="894.5" width="885" height="60" fill="white" stroke="#272727" stroke-width="15"/>
<rect x="83.5" y="829.5" width="735" height="60" fill="white" stroke="#272727" stroke-width="15"/>
<path d="M166.459 829.5L159.709 784.5H242.291L235.541 829.5H166.459Z" fill="white" stroke="#272727" stroke-width="15"/>
<path d="M157.459 294.5L150.709 249.5H251.291L244.541 294.5H157.459Z" fill="white" stroke="#272727" stroke-width="15"/>
<rect x="170.5" y="294.5" width="60" height="490" fill="white" stroke="#272727" stroke-width="15"/>
<path d="M417.353 829.5L409.853 784.5H492.291L485.541 829.5H417.353Z" fill="white" stroke="#272727" stroke-width="15"/>
<path d="M408.353 294.5L400.853 249.5H502.291L495.541 294.5H408.353Z" fill="white" stroke="#272727" stroke-width="15"/>
<rect x="421.5" y="294.5" width="60" height="490" fill="white" stroke="#272727" stroke-width="15"/>
<path d="M665.459 829.5L658.709 784.5H741.291L734.541 829.5H665.459Z" fill="white" stroke="#272727" stroke-width="15"/>
<path d="M656.459 294.5L649.709 249.5H750.291L743.541 294.5H656.459Z" fill="white" stroke="#272727" stroke-width="15"/>
<rect x="670.5" y="294.5" width="60" height="490" fill="white" stroke="#272727" stroke-width="15"/>
<circle cx="451" cy="96" r="52.5" fill="white" stroke="#272727" stroke-width="15"/>
<circle cx="451" cy="96" r="37.5" fill="white" stroke="url(#paint0_linear_412:6)" stroke-width="15"/>
<path d="M161 326.956L441 377.237V753.044L161 702.763V326.956ZM461 753.044V377.237L741 326.956V702.763L461 753.044Z" fill="white" stroke="url(#paint1_linear_412:6)" stroke-width="20"/>
<defs>
<linearGradient id="paint0_linear_412:6" x1="451" y1="51" x2="451" y2="141" gradientUnits="userSpaceOnUse">
<stop offset="0.255208" stop-color="#4B73FF"/>
<stop offset="1" stop-color="#0038FF"/>
</linearGradient>
<linearGradient id="paint1_linear_412:6" x1="601" y1="315" x2="601" y2="765" gradientUnits="userSpaceOnUse">
<stop offset="0.255208" stop-color="#4B73FF"/>
<stop offset="1" stop-color="#0038FF"/>
</linearGradient>
</defs>
</svg>
