<svg width="901" height="923" viewBox="0 0 901 923" fill="none" xmlns="http://www.w3.org/2000/svg">
<path d="M10.333 182H10.5861H12.6263H14.663H16.6963H18.7262H20.7526H22.7757H24.7954H26.8117H28.8246H30.8342H32.8405H34.8435H36.8432H38.8396H40.8327H42.8225H44.8091H46.7925H48.7727H50.7496H52.7234H54.694H56.6614H58.6257H60.5869H62.5449H64.4998H66.4517H68.4004H70.3461H72.2887H74.2283H76.1649H78.0985H80.0291H81.9566H83.8813H85.8029H87.7217H89.6375H91.5503H93.4603H95.3674H97.2717H99.173H101.072H102.967H104.86H106.75H108.638H110.522H112.404H114.283H116.159H118.033H119.903H121.772H123.637H125.5H127.36H129.218H131.072H132.925H134.774H136.622H138.466H140.308H142.148H143.985H145.819H147.651H149.48H151.307H153.132H154.954H156.773H158.591H160.405H162.218H164.028H165.836H167.641H169.444H171.245H173.043H174.839H176.633H178.424H180.214H182.001H183.786H185.568H187.349H189.127H190.903H192.677H194.449H196.218H197.986H199.751H201.515H203.276H205.035H206.793H208.548H210.301H212.052H213.801H215.548H217.294H219.037H220.778H222.518H224.255H225.991H227.725H229.456H231.187H232.915H234.641H236.366H238.088H239.809H241.529H243.246H244.962H246.676H248.388H250.099H251.808H253.515H255.221H256.925H258.627H260.328H262.027H263.724H265.42H267.115H268.807H270.499H272.188H273.877H275.564H277.249H278.933H280.615H282.296H283.976H285.654H287.33H289.006H290.68H292.352H294.024H295.694H297.362H299.03H300.696H302.361H304.024H305.686H307.348H309.007H310.666H312.324H313.98H315.635H317.289H318.942H320.594H322.244H323.894H325.542H327.19H328.836H330.481H332.126H333.769H335.411H337.053H338.693H340.332H341.971H343.608H345.245H346.881H348.516H350.15H351.783H353.415H355.046H356.677H358.307H359.936H361.564H363.192H364.819H366.445H368.07H369.695H371.319H372.942H374.564H376.186H377.808H379.428H381.048H382.668H384.287H385.905H387.523H389.14H390.757H392.373H393.989H395.604H397.219H398.833H400.447H402.06H403.673H405.286H406.898H408.51H410.122H411.733H413.344H414.954H416.564H418.174H419.784H421.393H423.002H424.611H426.22H427.828H429.437H431.045H432.653H434.261H435.868H437.476H439.083H440.69H442.298H443.905H445.512H447.119H448.726H450.333H451.94H453.547H455.154H456.761H458.368H459.976H461.583H463.19H464.798H466.405H468.013H469.621H471.229H472.838H474.446H476.055H477.664H479.273H480.882H482.492H484.102H485.712H487.322H488.933H490.544H492.156H493.768H495.38H496.993H498.606H500.219H501.833H503.447H505.062H506.677H508.293H509.909H511.526H513.143H514.761H516.379H517.998H519.618H521.238H522.858H524.48H526.102H527.724H529.347H530.971H532.596H534.221H535.847H537.474H539.102H540.73H542.359H543.989H545.62H547.251H548.883H550.516H552.15H553.785H555.421H557.058H558.695H560.334H561.973H563.613H565.255H566.897H568.54H570.185H571.83H573.476H575.124H576.772H578.422H580.072H581.724H583.377H585.031H586.686H588.342H590H591.659H593.318H594.98H596.642H598.305H599.97H601.636H603.304H604.972H606.642H608.314H609.986H611.66H613.336H615.012H616.69H618.37H620.051H621.733H623.417H625.103H626.789H628.478H630.167H631.859H633.552H635.246H636.942H638.639H640.338H642.039H643.741H645.445H647.151H648.858H650.567H652.278H653.99H655.704H657.42H659.137H660.857H662.578H664.3H666.025H667.751H669.479H671.21H672.941H674.675H676.411H678.148H679.888H681.629H683.372H685.118H686.865H688.614H690.365H692.118H693.873H695.631H697.39H699.151H700.915H702.68H704.448H706.217H707.989H709.763H711.539H713.317H715.098H716.88H718.665H720.452H722.242H724.033H725.827H727.623H729.421H731.222H733.025H734.83H736.638H738.448H740.261H742.075H743.893H745.712H747.534H749.359H751.186H753.015H754.847H756.682H758.518H760.358H762.2H764.044H765.892H767.741H769.594H771.448H773.306H775.166H777.029H778.894H780.763H782.633H784.507H786.383H788.262H790.144H792.029H793.916H795.806H797.699H799.594H801.493H803.394H805.299H807.206H809.116H811.029H812.944H814.863H816.785H818.709H820.637H822.568H824.501H826.438H828.377H830.32H832.266H834.214H836.166H838.121H840.079H842.04H844.005H845.972H847.943H849.916H851.893H853.874H855.857H857.844H859.833H861.826H863.823H865.823H867.826H869.832H871.841H873.854H875.871H877.89H879.913H881.94H883.97H886.003H888.04H890.08H890.333V237H10.333V182Z" fill="white" stroke="#272727" stroke-width="20"/>
<path d="M48.9525 182L450.333 10.871L851.714 182H48.9525Z" fill="white" stroke="#272727" stroke-width="20"/>
<rect x="10.333" y="858" width="880" height="55" fill="white" stroke="#272727" stroke-width="20"/>
<rect x="85.333" y="803" width="730" height="55" fill="white" stroke="#272727" stroke-width="20"/>
<path d="M167.945 803L161.945 763H238.721L232.721 803H167.945Z" fill="white" stroke="#272727" stroke-width="20"/>
<path d="M158.945 277L152.945 237H247.721L241.721 277H158.945Z" fill="white" stroke="#272727" stroke-width="20"/>
<rect x="172.333" y="278" width="55" height="485" fill="white" stroke="#272727" stroke-width="20"/>
<path d="M418.804 803L412.138 763H488.721L482.721 803H418.804Z" fill="white" stroke="#272727" stroke-width="20"/>
<path d="M409.804 277L403.138 237H498.721L492.721 277H409.804Z" fill="white" stroke="#272727" stroke-width="20"/>
<rect x="423.333" y="278" width="55" height="485" fill="white" stroke="#272727" stroke-width="20"/>
<path d="M666.945 803L660.945 763H737.721L731.721 803H666.945Z" fill="white" stroke="#272727" stroke-width="20"/>
<path d="M657.945 277L651.945 237H746.721L740.721 277H657.945Z" fill="white" stroke="#272727" stroke-width="20"/>
<rect x="672.333" y="278" width="55" height="485" fill="white" stroke="#272727" stroke-width="20"/>
<circle cx="450" cy="96" r="50" fill="white" stroke="#272727" stroke-width="20"/>
<circle cx="450" cy="96" r="35" fill="white" stroke="#272727" stroke-width="20"/>
<path d="M161 307.956L441 358.237V734.044L161 683.763V307.956ZM461 734.044V358.237L741 307.956V683.763L461 734.044Z" fill="white" stroke="#272727" stroke-width="20"/>
</svg>
